<svg width="1440" height="1024" viewBox="0 0 1440 1024" fill="none" xmlns="http://www.w3.org/2000/svg">
<path d="M0 0H1440V641C1440 641 960.5 587 1086.5 389.5C1212.5 192 816.5 196 718 412.5C619.5 629 372.5 481.5 331 606C289.5 730.5 0 759 0 759V0Z" fill="#F29278"/>
<g clip-path="url(#clip0_201_2)">
<path d="M699.056 831.933C695.083 836.815 695.163 845.178 699.252 852.814C700.288 854.74 701.218 856.089 702.7 857.836C705.046 860.586 707.724 862.641 710.688 863.936C712.417 864.691 713.957 865.072 715.692 865.16C717.986 865.277 719.837 864.844 721.693 863.765C722.56 863.259 723.949 861.984 724.553 861.139C725.749 859.461 726.476 857.629 726.854 855.365C727.594 850.853 726.551 845.644 723.913 840.702C722.734 838.499 721.497 836.787 719.682 834.86C717.18 832.208 714.785 830.527 711.885 829.409C710.24 828.77 709.125 828.529 707.457 828.444C705.225 828.325 703.398 828.737 701.612 829.763C701.011 830.103 699.493 831.389 699.056 831.933Z" fill="#FD7F2C" fill-opacity="0.5"/>
<path d="M675.373 856.05C674.472 857.11 673.971 857.914 673.579 858.91C672.243 862.337 672.739 866.61 674.959 870.84C675.982 872.8 677.013 874.26 678.639 876.048C681.433 879.141 684.639 881.413 688.305 882.907C690.531 883.811 692.582 884.296 694.636 884.406C697.579 884.556 700.062 883.947 702.096 882.558C704.606 880.856 706.063 877.788 706.014 874.33C705.962 871.045 704.736 867.572 702.379 864.053C701.591 862.885 698.867 859.857 697.784 858.966C693.428 855.362 688.874 853.347 684.479 853.057C680.99 852.834 678.315 853.574 676.138 855.36C675.804 855.64 675.463 855.948 675.373 856.05Z" fill="#FD7F2C" fill-opacity="0.5"/>
<path d="M673.695 891.31C672.596 892.623 672.052 893.734 671.763 895.234C671.207 898.118 672.129 901.503 674.399 904.866C675.066 905.865 677.115 908.168 678.087 909.009C679.581 910.308 681.313 911.551 682.938 912.475C689.127 915.993 696.105 916.897 700.79 914.801C701.857 914.328 702.363 913.989 703.298 913.144C703.986 912.512 704.224 912.254 704.552 911.755C705.001 911.082 705.521 909.908 705.685 909.215C706.29 906.693 705.807 903.936 704.253 900.962C703.435 899.395 702.983 898.789 701.209 896.825C699.694 895.16 699.507 894.977 698.542 894.204C696.741 892.766 695.073 891.699 693.12 890.731C686.766 887.586 679.98 887.191 675.695 889.717C675.14 890.037 673.982 890.965 673.695 891.31Z" fill="#FD7F2C" fill-opacity="0.5"/>
<path d="M736.812 841.115C733.299 845.666 733.47 853.917 737.224 861.193C739.037 864.713 741.648 867.757 744.448 869.627C747.861 871.905 751.441 872.451 754.312 871.149C755.11 870.792 755.598 870.468 756.286 869.847C757.056 869.151 757.535 868.558 758.081 867.638C759.155 865.813 759.744 863.605 759.859 861.013C759.932 859.462 759.876 858.467 759.642 856.884C759.072 852.978 757.555 849.159 755.2 845.701C754.501 844.667 752.372 842.276 751.543 841.583C749.471 839.856 747.643 838.838 745.645 838.316C743.17 837.668 740.724 837.998 738.832 839.238C738.245 839.629 737.251 840.549 736.812 841.115Z" fill="#FD7F2C" fill-opacity="0.5"/>
<path d="M720.675 884.803C718.153 887.401 715.488 891.176 714.655 893.328C714.08 894.808 713.916 895.938 713.747 899.593C713.678 901.076 713.56 902.731 713.488 903.266C713.276 904.792 712.581 907.439 711.188 911.985C708.942 919.322 708.414 921.87 708.796 923.533C709.24 925.491 710.367 927.495 712.109 929.424C713.495 930.97 714.713 931.963 716.322 932.869C717.876 933.75 719.101 934.149 721.024 934.398C727.395 935.221 734.449 932.864 742.865 927.097C745.841 925.061 748.593 922.917 755.529 917.238C758.216 915.035 763.471 910.32 764.905 908.822C770.68 902.803 773.646 897.882 774.666 892.582C774.918 891.265 775.069 889.079 774.965 888.019C774.804 886.232 774.103 884.783 772.605 883.125C771.707 882.131 770.858 881.403 769.719 880.639C766.875 878.744 764.696 878.022 761.454 877.896C759.914 877.835 758.896 877.89 755.468 878.21C751.9 878.539 750.573 878.595 748.812 878.478C747.28 878.377 746.135 878.173 742.834 877.428C740.023 876.786 738.487 876.54 737.014 876.482C735.48 876.426 734.424 876.547 733.104 876.928C728.879 878.15 724.322 881.038 720.675 884.803Z" fill="#FD7F2C" fill-opacity="0.5"/>
</g>
<g clip-path="url(#clip1_201_2)">
<path d="M928.364 879.423C927.599 885.67 932.119 892.707 939.646 896.994C941.548 898.073 943.053 898.72 945.238 899.41C948.688 900.489 952.049 900.803 955.247 900.321C957.113 900.04 958.62 899.543 960.135 898.694C962.139 897.571 963.475 896.219 964.472 894.319C964.937 893.429 965.434 891.609 965.495 890.573C965.614 888.515 965.255 886.578 964.37 884.46C962.594 880.246 958.938 876.392 954.074 873.613C951.903 872.376 949.945 871.585 947.382 870.92C943.852 870.008 940.931 869.859 937.881 870.456C936.148 870.791 935.075 871.18 933.618 871.996C931.665 873.084 930.338 874.406 929.372 876.225C929.045 876.832 928.444 878.729 928.364 879.423Z" fill="#FD7F2C" fill-opacity="0.5"/>
<path d="M921.155 912.446C920.956 913.822 920.96 914.77 921.158 915.822C921.852 919.434 924.546 922.787 928.677 925.187C930.586 926.301 932.237 926.988 934.565 927.636C938.577 928.767 942.5 928.984 946.399 928.296C948.764 927.877 950.759 927.196 952.556 926.196C955.127 924.755 956.905 922.918 957.887 920.659C959.106 917.883 958.707 914.51 956.824 911.608C955.032 908.856 952.145 906.568 948.276 904.844C946.987 904.275 943.069 903.162 941.678 902.984C936.073 902.252 931.144 902.97 927.269 905.064C924.197 906.734 922.327 908.783 921.434 911.454C921.301 911.87 921.176 912.312 921.155 912.446Z" fill="#FD7F2C" fill-opacity="0.5"/>
<path d="M938.505 943.187C938.273 944.884 938.404 946.114 938.958 947.538C940.022 950.275 942.605 952.65 946.317 954.289C947.413 954.779 950.374 955.638 951.645 955.832C953.601 956.136 955.729 956.267 957.596 956.184C964.708 955.867 971.097 952.917 973.946 948.649C974.598 947.68 974.846 947.124 975.187 945.912C975.433 945.01 975.498 944.666 975.51 944.068C975.532 943.259 975.346 941.989 975.117 941.314C974.286 938.858 972.41 936.781 969.511 935.091C967.984 934.2 967.279 933.927 964.731 933.209C962.563 932.606 962.307 932.55 961.079 932.41C958.789 932.151 956.809 932.136 954.639 932.356C947.587 933.077 941.633 936.355 939.349 940.774C939.05 941.34 938.564 942.743 938.505 943.187Z" fill="#FD7F2C" fill-opacity="0.5"/>
<path d="M965.214 867.096C964.663 872.819 969.199 879.712 976.25 883.873C979.659 885.888 983.49 887.075 986.856 887.167C990.958 887.278 994.279 885.835 996.016 883.205C996.501 882.477 996.742 881.944 996.994 881.051C997.275 880.052 997.365 879.296 997.337 878.226C997.275 876.109 996.598 873.926 995.316 871.671C994.552 870.32 993.975 869.506 992.934 868.291C990.372 865.288 987.055 862.863 983.221 861.19C982.078 860.687 979.003 859.795 977.933 859.65C975.259 859.291 973.17 859.402 971.2 860.024C968.76 860.794 966.865 862.375 965.924 864.431C965.635 865.075 965.283 866.383 965.214 867.096Z" fill="#FD7F2C" fill-opacity="0.5"/>
<path d="M974.81 912.669C974.059 916.211 973.812 920.826 974.252 923.09C974.553 924.649 975.016 925.694 976.819 928.877C977.55 930.17 978.331 931.633 978.555 932.125C979.188 933.53 980.008 936.14 981.25 940.73C983.254 948.136 984.164 950.574 985.372 951.779C986.791 953.2 988.812 954.297 991.313 955.002C993.309 955.573 994.869 955.765 996.713 955.676C998.498 955.595 999.747 955.28 1001.51 954.467C1007.34 951.772 1012.06 946.021 1016.11 936.659C1017.55 933.351 1018.73 930.072 1021.58 921.572C1022.68 918.276 1024.62 911.487 1025.04 909.456C1026.72 901.287 1026.61 895.542 1024.66 890.512C1024.17 889.263 1023.13 887.332 1022.48 886.49C1021.39 885.064 1020.03 884.21 1017.88 883.604C1016.59 883.24 1015.48 883.077 1014.11 883.036C1010.69 882.946 1008.46 883.494 1005.65 885.114C1004.32 885.882 1003.48 886.47 1000.75 888.566C997.909 890.744 996.815 891.498 995.262 892.336C993.911 893.067 992.833 893.504 989.643 894.63C986.92 895.583 985.489 896.192 984.212 896.927C982.883 897.697 982.054 898.361 981.139 899.387C978.213 902.67 975.893 907.541 974.81 912.669Z" fill="#FD7F2C" fill-opacity="0.5"/>
</g>
<g clip-path="url(#clip2_201_2)">
<path d="M1230.16 865.398C1230.37 871.688 1235.92 877.945 1244.01 881.022C1246.06 881.795 1247.65 882.202 1249.91 882.548C1253.49 883.083 1256.86 882.875 1259.94 881.907C1261.74 881.342 1263.15 880.618 1264.52 879.546C1266.33 878.128 1267.44 876.586 1268.13 874.555C1268.45 873.604 1268.66 871.73 1268.57 870.696C1268.37 868.645 1267.71 866.786 1266.51 864.829C1264.11 860.94 1259.9 857.694 1254.67 855.698C1252.33 854.809 1250.28 854.33 1247.64 854.068C1244.01 853.709 1241.1 854.013 1238.18 855.073C1236.52 855.671 1235.52 856.22 1234.21 857.251C1232.45 858.626 1231.34 860.137 1230.66 862.083C1230.43 862.733 1230.13 864.7 1230.16 865.398Z" fill="#FD7F2C" fill-opacity="0.5"/>
<path d="M1228.12 899.137C1228.14 900.528 1228.29 901.464 1228.65 902.473C1229.89 905.935 1233.07 908.833 1237.52 910.567C1239.58 911.374 1241.31 911.799 1243.71 912.081C1247.85 912.581 1251.76 912.191 1255.51 910.911C1257.78 910.132 1259.65 909.152 1261.27 907.887C1263.59 906.068 1265.06 903.979 1265.68 901.596C1266.46 898.664 1265.55 895.393 1263.24 892.816C1261.04 890.372 1257.84 888.557 1253.75 887.449C1252.39 887.085 1248.35 886.589 1246.94 886.628C1241.29 886.767 1236.53 888.236 1233.03 890.902C1230.25 893.025 1228.72 895.338 1228.25 898.115C1228.18 898.545 1228.12 899.002 1228.12 899.137Z" fill="#FD7F2C" fill-opacity="0.5"/>
<path d="M1250 926.84C1250.03 928.552 1250.35 929.747 1251.12 931.069C1252.59 933.609 1255.51 935.558 1259.43 936.606C1260.59 936.921 1263.65 937.314 1264.93 937.31C1266.91 937.309 1269.03 937.11 1270.87 936.741C1277.84 935.332 1283.7 931.434 1285.86 926.778C1286.36 925.72 1286.51 925.133 1286.67 923.882C1286.77 922.953 1286.78 922.603 1286.7 922.011C1286.6 921.208 1286.22 919.981 1285.89 919.351C1284.69 917.051 1282.51 915.288 1279.39 914.065C1277.74 913.419 1277.01 913.258 1274.38 912.941C1272.14 912.679 1271.88 912.664 1270.65 912.714C1268.34 912.811 1266.38 913.102 1264.28 913.653C1257.42 915.451 1252.04 919.607 1250.46 924.325C1250.26 924.931 1249.99 926.391 1250 926.84Z" fill="#FD7F2C" fill-opacity="0.5"/>
<path d="M1264.67 847.543C1265.01 853.282 1270.55 859.395 1278.16 862.42C1281.84 863.886 1285.81 864.468 1289.15 864.041C1293.22 863.519 1296.28 861.582 1297.59 858.715C1297.96 857.921 1298.11 857.358 1298.22 856.437C1298.35 855.407 1298.32 854.645 1298.13 853.592C1297.74 851.51 1296.73 849.457 1295.12 847.427C1294.16 846.209 1293.46 845.495 1292.25 844.454C1289.25 841.882 1285.6 839.997 1281.55 838.934C1280.35 838.612 1277.17 838.205 1276.09 838.226C1273.4 838.284 1271.35 838.715 1269.5 839.633C1267.21 840.769 1265.58 842.624 1264.96 844.801C1264.78 845.481 1264.63 846.828 1264.67 847.543Z" fill="#FD7F2C" fill-opacity="0.5"/>
<path d="M1281.17 891.094C1280.98 894.71 1281.44 899.307 1282.23 901.477C1282.76 902.971 1283.38 903.931 1285.65 906.8C1286.58 907.964 1287.57 909.29 1287.87 909.741C1288.71 911.032 1289.92 913.485 1291.86 917.828C1294.98 924.838 1296.25 927.107 1297.63 928.111C1299.25 929.296 1301.42 930.069 1304 930.38C1306.06 930.637 1307.63 930.587 1309.44 930.215C1311.19 929.859 1312.38 929.356 1313.99 928.282C1319.34 924.721 1323.11 918.312 1325.68 908.438C1326.58 904.947 1327.25 901.524 1328.76 892.687C1329.34 889.261 1330.21 882.255 1330.31 880.183C1330.71 871.852 1329.72 866.193 1327.01 861.524C1326.34 860.365 1325.02 858.618 1324.24 857.886C1322.95 856.644 1321.47 856.01 1319.25 855.743C1317.92 855.582 1316.8 855.591 1315.44 855.762C1312.05 856.199 1309.93 857.084 1307.4 859.118C1306.2 860.082 1305.47 860.792 1303.09 863.283C1300.62 865.873 1299.65 866.786 1298.25 867.854C1297.03 868.784 1296.03 869.382 1293.05 870.986C1290.51 872.347 1289.19 873.169 1288.04 874.092C1286.84 875.057 1286.13 875.841 1285.38 876.996C1283 880.691 1281.45 885.86 1281.17 891.094Z" fill="#FD7F2C" fill-opacity="0.5"/>
</g>
<g clip-path="url(#clip3_201_2)">
<path d="M607.92 693.061C603.182 694.766 599.785 700.53 599.435 707.451C599.349 709.198 599.43 710.506 599.724 712.315C600.196 715.168 601.184 717.682 602.68 719.793C603.553 721.024 604.451 721.921 605.603 722.698C607.127 723.725 608.575 724.192 610.292 724.219C611.095 724.23 612.573 723.929 613.335 723.6C614.848 722.944 616.102 721.989 617.296 720.593C619.666 717.807 621.101 713.807 621.334 709.331C621.435 707.335 621.294 705.651 620.846 703.581C620.226 700.731 619.279 698.591 617.753 696.628C616.89 695.511 616.225 694.885 615.118 694.138C613.637 693.135 612.214 692.663 610.567 692.629C610.015 692.614 608.444 692.868 607.92 693.061Z" fill="#FD7F2C" fill-opacity="0.5"/>
<path d="M581.735 699.811C580.68 700.165 580.005 700.51 579.325 701.03C576.995 702.827 575.571 705.96 575.346 709.775C575.238 711.54 575.341 712.966 575.717 714.863C576.355 718.136 577.614 721.016 579.51 723.553C580.662 725.092 581.868 726.271 583.229 727.194C585.185 728.512 587.137 729.119 589.105 729.007C591.527 728.877 593.792 727.377 595.186 724.986C596.506 722.714 597.1 719.828 596.938 716.443C596.88 715.318 596.263 712.118 595.889 711.061C594.392 706.793 592.103 703.532 589.211 701.519C586.911 699.926 584.774 699.329 582.544 699.653C582.199 699.708 581.839 699.778 581.735 699.811Z" fill="#FD7F2C" fill-opacity="0.5"/>
<path d="M566.03 723.28C564.735 723.727 563.903 724.263 563.085 725.172C561.514 726.918 560.749 729.619 560.915 732.86C560.96 733.82 561.414 736.244 561.733 737.222C562.221 738.729 562.894 740.296 563.626 741.6C566.415 746.565 570.824 750.066 574.899 750.563C575.826 750.68 576.312 750.656 577.302 750.463C578.035 750.314 578.304 750.235 578.735 750.029C579.32 749.753 580.161 749.163 580.56 748.756C582.015 747.277 582.823 745.189 582.985 742.509C583.071 741.098 583.012 740.496 582.607 738.417C582.257 736.652 582.204 736.449 581.862 735.521C581.221 733.792 580.519 732.372 579.58 730.902C576.524 726.124 572.037 723.053 568.058 723.014C567.546 723.004 566.369 723.163 566.03 723.28Z" fill="#FD7F2C" fill-opacity="0.5"/>
<path d="M630.002 714.939C625.716 716.608 622.427 722.332 621.996 728.868C621.785 732.028 622.318 735.192 623.465 737.63C624.864 740.599 627.091 742.452 629.596 742.745C630.291 742.829 630.758 742.809 631.486 742.667C632.301 742.508 632.874 742.3 633.628 741.894C635.118 741.087 636.433 739.817 637.582 738.088C638.272 737.056 638.644 736.351 639.138 735.169C640.359 732.258 640.896 729.014 640.71 725.673C640.657 724.675 640.186 722.158 639.904 721.341C639.197 719.302 638.365 717.85 637.211 716.667C635.782 715.202 633.97 714.418 632.162 714.486C631.598 714.512 630.537 714.732 630.002 714.939Z" fill="#FD7F2C" fill-opacity="0.5"/>
<path d="M600.91 738.215C598.109 738.955 594.724 740.441 593.265 741.572C592.26 742.349 591.681 743.056 590.057 745.491C589.397 746.478 588.633 747.564 588.363 747.9C587.587 748.859 586.018 750.385 583.187 752.926C578.62 757.026 577.206 758.555 576.781 759.852C576.277 761.377 576.222 763.216 576.62 765.256C576.931 766.888 577.356 768.071 578.084 769.356C578.785 770.602 579.46 771.381 580.675 772.345C584.701 775.539 590.508 776.836 598.656 776.359C601.536 776.191 604.306 775.858 611.404 774.83C614.155 774.429 619.702 773.368 621.303 772.933C627.746 771.193 631.809 769.045 634.697 765.834C635.413 765.036 636.418 763.6 636.785 762.831C637.412 761.54 637.53 760.257 637.188 758.503C636.983 757.451 636.701 756.602 636.236 755.607C635.07 753.135 633.875 751.741 631.705 750.316C630.675 749.639 629.954 749.256 627.474 748.06C624.893 746.813 623.96 746.304 622.802 745.496C621.793 744.795 621.093 744.182 619.139 742.309C617.477 740.708 616.526 739.906 615.541 739.258C614.513 738.587 613.74 738.233 612.677 737.95C609.277 737.043 604.963 737.141 600.91 738.215Z" fill="#FD7F2C" fill-opacity="0.5"/>
</g>
<g clip-path="url(#clip4_201_2)">
<path d="M703.368 558.726C698.37 559.34 693.781 564.209 691.908 570.881C691.438 572.566 691.227 573.859 691.113 575.689C690.942 578.576 691.348 581.245 692.34 583.635C692.919 585.029 693.596 586.103 694.548 587.115C695.807 588.454 697.115 589.23 698.783 589.636C699.564 589.825 701.072 589.859 701.889 589.706C703.509 589.401 704.944 588.748 706.417 587.651C709.345 585.458 711.63 581.875 712.847 577.562C713.388 575.638 713.624 573.965 713.644 571.847C713.671 568.93 713.221 566.633 712.168 564.381C711.573 563.101 711.064 562.343 710.149 561.37C708.927 560.064 707.644 559.289 706.045 558.891C705.511 558.754 703.922 558.654 703.368 558.726Z" fill="#FD7F2C" fill-opacity="0.5"/>
<path d="M676.339 559.512C675.232 559.624 674.497 559.811 673.718 560.168C671.048 561.405 668.966 564.144 667.902 567.815C667.406 569.512 667.191 570.926 667.138 572.859C667.036 576.192 667.626 579.279 668.913 582.173C669.696 583.928 670.61 585.345 671.734 586.547C673.349 588.265 675.119 589.289 677.062 589.615C679.453 590.025 681.994 589.063 683.883 587.041C685.674 585.117 686.891 582.434 687.482 579.097C687.675 577.987 687.781 574.73 687.651 573.616C687.136 569.123 685.625 565.436 683.251 562.833C681.361 560.77 679.408 559.715 677.162 559.538C676.814 559.514 676.447 559.503 676.339 559.512Z" fill="#FD7F2C" fill-opacity="0.5"/>
<path d="M655.828 578.923C654.466 579.071 653.536 579.411 652.537 580.116C650.619 581.471 649.274 583.935 648.719 587.133C648.551 588.079 648.456 590.543 648.551 591.567C648.693 593.145 649.003 594.822 649.428 596.256C651.049 601.716 654.573 606.105 658.437 607.492C659.316 607.811 659.795 607.895 660.802 607.926C661.55 607.943 661.83 607.926 662.296 607.82C662.928 607.681 663.879 607.292 664.358 606.983C666.104 605.863 667.354 604.005 668.105 601.428C668.502 600.07 668.578 599.47 668.643 597.354C668.692 595.554 668.686 595.345 668.557 594.364C668.315 592.537 667.944 590.997 667.354 589.355C665.431 584.019 661.736 580.03 657.864 579.112C657.367 578.989 656.184 578.883 655.828 578.923Z" fill="#FD7F2C" fill-opacity="0.5"/>
<path d="M720.059 584.95C715.51 585.629 711.036 590.482 709.168 596.761C708.263 599.796 708.082 603 708.661 605.63C709.368 608.836 711.13 611.135 713.508 611.976C714.167 612.212 714.627 612.296 715.368 612.318C716.198 612.344 716.803 612.267 717.628 612.039C719.26 611.582 720.824 610.634 722.326 609.203C723.228 608.349 723.747 607.743 724.49 606.701C726.325 604.131 727.567 601.087 728.125 597.787C728.295 596.803 728.393 594.244 728.298 593.385C728.06 591.24 727.57 589.64 726.707 588.231C725.638 586.485 724.044 585.32 722.265 584.986C721.71 584.887 720.626 584.866 720.059 584.95Z" fill="#FD7F2C" fill-opacity="0.5"/>
<path d="M686.536 601.208C683.641 601.31 680.011 602.01 678.338 602.789C677.186 603.325 676.465 603.886 674.342 605.901C673.479 606.718 672.494 607.607 672.156 607.876C671.188 608.639 669.32 609.78 665.997 611.631C660.635 614.618 658.918 615.796 658.216 616.967C657.387 618.343 656.927 620.123 656.863 622.202C656.805 623.862 656.957 625.109 657.383 626.524C657.791 627.894 658.277 628.803 659.248 630.012C662.467 634.018 667.843 636.568 675.895 637.907C678.74 638.381 681.516 638.669 688.665 639.238C691.436 639.456 697.081 639.649 698.738 639.579C705.406 639.309 709.844 638.113 713.371 635.621C714.246 635.001 715.544 633.824 716.072 633.155C716.969 632.035 717.368 630.81 717.423 629.023C717.456 627.952 717.37 627.062 717.136 625.989C716.546 623.32 715.689 621.696 713.888 619.826C713.034 618.938 712.416 618.405 710.262 616.69C708.021 614.902 707.224 614.199 706.273 613.155C705.445 612.248 704.897 611.495 703.407 609.236C702.141 607.307 701.391 606.314 700.574 605.464C699.719 604.582 699.044 604.066 698.07 603.554C694.956 601.917 690.727 601.058 686.536 601.208Z" fill="#FD7F2C" fill-opacity="0.5"/>
</g>
<defs>
<clipPath id="clip0_201_2">
<rect width="100" height="101.426" fill="white" transform="translate(649 877.034) rotate(-42.0936)"/>
</clipPath>
<clipPath id="clip1_201_2">
<rect width="100" height="101.426" fill="white" transform="translate(910 944.249) rotate(-74.2581)"/>
</clipPath>
<clipPath id="clip2_201_2">
<rect width="100" height="101.426" fill="white" transform="translate(1222 932.279) rotate(-83.1177)"/>
</clipPath>
<clipPath id="clip3_201_2">
<rect width="80" height="81.141" fill="white" transform="translate(555 703.304) rotate(-11.0284)"/>
</clipPath>
<clipPath id="clip4_201_2">
<rect width="80" height="81.141" fill="white" transform="translate(649.494 557) rotate(1.76105)"/>
</clipPath>
</defs>
</svg>
