<svg width="885" height="467" viewBox="0 0 885 467" fill="none" xmlns="http://www.w3.org/2000/svg">
<g clip-path="url(#clip0_434_193)">
<path d="M144.056 283.042C140.083 288.067 140.163 296.677 144.252 304.538C145.288 306.521 146.218 307.91 147.7 309.708C150.046 312.54 152.724 314.655 155.688 315.988C157.417 316.766 158.957 317.158 160.692 317.249C162.986 317.369 164.837 316.923 166.693 315.813C167.56 315.292 168.949 313.978 169.553 313.109C170.749 311.381 171.476 309.496 171.854 307.165C172.594 302.519 171.551 297.157 168.913 292.069C167.734 289.801 166.497 288.039 164.682 286.055C162.18 283.325 159.785 281.594 156.885 280.444C155.24 279.786 154.125 279.537 152.457 279.45C150.225 279.327 148.398 279.752 146.612 280.808C146.011 281.157 144.493 282.482 144.056 283.042Z" fill="#FD7F2C" fill-opacity="0.5"/>
<path d="M120.373 307.87C119.472 308.961 118.971 309.79 118.579 310.814C117.243 314.343 117.739 318.741 119.959 323.096C120.982 325.114 122.013 326.617 123.639 328.458C126.433 331.642 129.639 333.981 133.305 335.519C135.531 336.45 137.582 336.95 139.636 337.063C142.579 337.216 145.062 336.59 147.096 335.16C149.606 333.408 151.063 330.25 151.014 326.689C150.962 323.308 149.736 319.732 147.379 316.109C146.591 314.907 143.867 311.79 142.784 310.872C138.428 307.162 133.874 305.087 129.479 304.788C125.99 304.56 123.315 305.321 121.138 307.159C120.804 307.448 120.463 307.765 120.373 307.87Z" fill="#FD7F2C" fill-opacity="0.5"/>
<path d="M118.695 344.17C117.596 345.522 117.052 346.666 116.763 348.21C116.207 351.179 117.129 354.663 119.399 358.126C120.066 359.154 122.115 361.526 123.087 362.391C124.581 363.728 126.313 365.008 127.938 365.96C134.127 369.581 141.105 370.512 145.79 368.354C146.857 367.867 147.363 367.518 148.298 366.648C148.986 365.997 149.224 365.732 149.552 365.218C150.001 364.525 150.521 363.316 150.685 362.603C151.29 360.007 150.807 357.169 149.253 354.107C148.435 352.493 147.983 351.869 146.209 349.847C144.694 348.134 144.507 347.945 143.542 347.149C141.741 345.669 140.073 344.571 138.12 343.574C131.766 340.336 124.98 339.93 120.695 342.53C120.14 342.859 118.982 343.815 118.695 344.17Z" fill="#FD7F2C" fill-opacity="0.5"/>
<path d="M181.812 292.495C178.299 297.18 178.47 305.674 182.224 313.165C184.037 316.789 186.648 319.923 189.448 321.848C192.861 324.192 196.441 324.755 199.312 323.415C200.11 323.046 200.598 322.714 201.286 322.074C202.056 321.358 202.535 320.747 203.081 319.8C204.155 317.921 204.744 315.647 204.859 312.979C204.932 311.383 204.876 310.358 204.642 308.729C204.072 304.708 202.555 300.776 200.2 297.216C199.501 296.152 197.372 293.69 196.543 292.976C194.471 291.199 192.643 290.15 190.645 289.613C188.17 288.946 185.724 289.286 183.832 290.562C183.245 290.964 182.251 291.912 181.812 292.495Z" fill="#FD7F2C" fill-opacity="0.5"/>
<path d="M165.675 337.471C163.153 340.146 160.488 344.032 159.655 346.247C159.08 347.771 158.916 348.935 158.747 352.697C158.678 354.224 158.56 355.928 158.488 356.478C158.276 358.05 157.581 360.774 156.188 365.455C153.942 373.008 153.414 375.631 153.796 377.344C154.24 379.359 155.367 381.423 157.109 383.408C158.495 384.999 159.713 386.022 161.322 386.955C162.876 387.862 164.101 388.273 166.024 388.529C172.395 389.376 179.449 386.949 187.865 381.013C190.841 378.916 193.593 376.709 200.529 370.863C203.216 368.595 208.471 363.74 209.905 362.198C215.68 356.002 218.646 350.936 219.666 345.479C219.918 344.124 220.069 341.873 219.965 340.782C219.804 338.942 219.103 337.45 217.605 335.743C216.707 334.72 215.858 333.971 214.719 333.184C211.875 331.233 209.696 330.49 206.454 330.361C204.914 330.298 203.896 330.354 200.468 330.683C196.9 331.022 195.573 331.08 193.812 330.959C192.28 330.856 191.135 330.646 187.834 329.879C185.023 329.218 183.487 328.964 182.014 328.904C180.48 328.847 179.424 328.971 178.104 329.364C173.879 330.622 169.322 333.595 165.675 337.471Z" fill="#FD7F2C" fill-opacity="0.5"/>
</g>
<g clip-path="url(#clip1_434_193)">
<path d="M373.364 331.933C372.599 338.364 377.119 345.608 384.646 350.022C386.548 351.133 388.053 351.799 390.238 352.509C393.688 353.62 397.049 353.943 400.247 353.447C402.113 353.158 403.62 352.646 405.135 351.772C407.139 350.616 408.475 349.224 409.472 347.267C409.937 346.351 410.434 344.478 410.495 343.411C410.614 341.293 410.255 339.299 409.37 337.118C407.594 332.78 403.938 328.812 399.074 325.951C396.903 324.677 394.945 323.863 392.382 323.179C388.852 322.239 385.931 322.086 382.881 322.701C381.148 323.046 380.075 323.447 378.618 324.287C376.665 325.407 375.338 326.767 374.372 328.64C374.045 329.265 373.444 331.218 373.364 331.933Z" fill="#FD7F2C" fill-opacity="0.5"/>
<path d="M366.155 365.929C365.956 367.346 365.96 368.322 366.158 369.405C366.852 373.124 369.546 376.575 373.677 379.046C375.586 380.193 377.237 380.901 379.565 381.568C383.577 382.732 387.5 382.955 391.399 382.247C393.764 381.815 395.759 381.114 397.556 380.085C400.127 378.602 401.905 376.71 402.887 374.385C404.106 371.527 403.707 368.054 401.824 365.067C400.032 362.233 397.145 359.878 393.276 358.103C391.987 357.517 388.069 356.372 386.678 356.188C381.073 355.435 376.144 356.174 372.269 358.33C369.197 360.049 367.327 362.159 366.434 364.909C366.301 365.336 366.176 365.791 366.155 365.929Z" fill="#FD7F2C" fill-opacity="0.5"/>
<path d="M383.505 397.577C383.273 399.324 383.404 400.591 383.958 402.057C385.022 404.874 387.605 407.319 391.317 409.006C392.413 409.511 395.374 410.395 396.645 410.595C398.601 410.908 400.729 411.043 402.596 410.957C409.708 410.631 416.097 407.595 418.946 403.201C419.598 402.203 419.846 401.631 420.187 400.382C420.433 399.454 420.498 399.099 420.51 398.484C420.532 397.651 420.347 396.343 420.117 395.649C419.286 393.12 417.41 390.982 414.511 389.242C412.984 388.325 412.279 388.044 409.731 387.305C407.563 386.684 407.307 386.627 406.079 386.482C403.789 386.216 401.809 386.201 399.639 386.427C392.587 387.169 386.633 390.543 384.349 395.093C384.05 395.676 383.564 397.12 383.505 397.577Z" fill="#FD7F2C" fill-opacity="0.5"/>
<path d="M410.214 319.242C409.663 325.134 414.199 332.23 421.25 336.514C424.659 338.588 428.49 339.81 431.856 339.905C435.958 340.019 439.279 338.533 441.016 335.826C441.501 335.076 441.742 334.528 441.994 333.609C442.275 332.58 442.365 331.801 442.337 330.7C442.275 328.521 441.598 326.273 440.316 323.952C439.552 322.56 438.975 321.723 437.934 320.472C435.372 317.381 432.055 314.884 428.221 313.161C427.078 312.643 424.003 311.726 422.933 311.576C420.259 311.207 418.17 311.321 416.2 311.961C413.76 312.754 411.865 314.382 410.924 316.499C410.635 317.161 410.283 318.508 410.214 319.242Z" fill="#FD7F2C" fill-opacity="0.5"/>
<path d="M419.81 366.159C419.059 369.806 418.812 374.557 419.252 376.888C419.553 378.493 420.016 379.568 421.819 382.845C422.55 384.176 423.331 385.683 423.555 386.188C424.188 387.635 425.008 390.322 426.25 395.048C428.254 402.672 429.164 405.182 430.372 406.423C431.791 407.886 433.812 409.015 436.313 409.74C438.309 410.328 439.869 410.526 441.713 410.434C443.498 410.351 444.747 410.027 446.508 409.19C452.339 406.415 457.055 400.495 461.11 390.857C462.545 387.451 463.733 384.075 466.582 375.324C467.683 371.932 469.622 364.942 470.038 362.851C471.723 354.441 471.614 348.527 469.656 343.348C469.168 342.063 468.132 340.075 467.48 339.208C466.392 337.74 465.028 336.86 462.877 336.236C461.588 335.862 460.481 335.694 459.11 335.652C455.694 335.559 453.465 336.124 450.653 337.792C449.317 338.582 448.485 339.188 445.754 341.345C442.909 343.587 441.815 344.363 440.262 345.226C438.911 345.979 437.833 346.429 434.643 347.588C431.92 348.569 430.489 349.196 429.212 349.953C427.883 350.745 427.054 351.429 426.139 352.485C423.213 355.865 420.893 360.879 419.81 366.159Z" fill="#FD7F2C" fill-opacity="0.5"/>
</g>
<g clip-path="url(#clip2_434_193)">
<path d="M675.16 317.494C675.367 323.97 680.917 330.411 689.014 333.579C691.06 334.375 692.647 334.794 694.912 335.15C698.487 335.701 701.856 335.487 704.942 334.49C706.742 333.908 708.154 333.163 709.521 332.059C711.328 330.6 712.44 329.012 713.132 326.921C713.455 325.942 713.665 324.012 713.566 322.948C713.367 320.837 712.713 318.923 711.513 316.909C709.109 312.904 704.903 309.563 699.669 307.508C697.334 306.593 695.277 306.099 692.642 305.829C689.014 305.461 686.104 305.773 683.183 306.864C681.522 307.48 680.522 308.046 679.209 309.107C677.446 310.523 676.338 312.078 675.664 314.081C675.434 314.751 675.133 316.776 675.16 317.494Z" fill="#FD7F2C" fill-opacity="0.5"/>
<path d="M673.123 352.228C673.139 353.66 673.289 354.624 673.647 355.662C674.889 359.227 678.067 362.21 682.519 363.996C684.576 364.826 686.313 365.264 688.713 365.554C692.851 366.068 696.761 365.667 700.507 364.349C702.78 363.547 704.646 362.538 706.268 361.236C708.586 359.363 710.06 357.213 710.683 354.759C711.459 351.741 710.545 348.374 708.238 345.721C706.043 343.205 702.838 341.336 698.75 340.195C697.389 339.821 693.346 339.31 691.945 339.35C686.293 339.494 681.535 341.006 678.028 343.75C675.25 345.936 673.718 348.317 673.247 351.176C673.179 351.619 673.124 352.089 673.123 352.228Z" fill="#FD7F2C" fill-opacity="0.5"/>
<path d="M695.001 380.748C695.034 382.51 695.352 383.741 696.119 385.102C697.592 387.717 700.509 389.723 704.43 390.802C705.589 391.127 708.646 391.531 709.932 391.527C711.911 391.526 714.034 391.321 715.867 390.941C722.845 389.491 728.703 385.478 730.861 380.684C731.356 379.596 731.515 378.991 731.666 377.703C731.77 376.746 731.78 376.386 731.7 375.776C731.597 374.95 731.219 373.687 730.888 373.038C729.689 370.67 727.515 368.855 724.39 367.596C722.744 366.932 722.005 366.766 719.378 366.439C717.143 366.17 716.881 366.154 715.646 366.206C713.344 366.306 711.385 366.605 709.275 367.172C702.418 369.024 697.039 373.302 695.464 378.159C695.255 378.783 694.991 380.286 695.001 380.748Z" fill="#FD7F2C" fill-opacity="0.5"/>
<path d="M709.672 299.112C710.009 305.021 715.553 311.314 723.161 314.428C726.839 315.937 730.807 316.537 734.147 316.097C738.217 315.56 741.276 313.565 742.588 310.614C742.955 309.797 743.111 309.216 743.222 308.269C743.347 307.208 743.319 306.424 743.127 305.34C742.739 303.197 741.734 301.083 740.12 298.993C739.157 297.739 738.461 297.004 737.246 295.932C734.252 293.284 730.601 291.343 726.555 290.249C725.348 289.918 722.173 289.499 721.093 289.521C718.396 289.58 716.349 290.024 714.498 290.969C712.206 292.139 710.577 294.048 709.963 296.289C709.777 296.989 709.631 298.376 709.672 299.112Z" fill="#FD7F2C" fill-opacity="0.5"/>
<path d="M726.173 343.948C725.976 347.67 726.443 352.404 727.226 354.637C727.764 356.175 728.383 357.164 730.655 360.117C731.576 361.316 732.573 362.68 732.87 363.145C733.711 364.473 734.924 366.999 736.858 371.471C739.979 378.687 741.253 381.023 742.632 382.057C744.253 383.277 746.419 384.072 748.999 384.393C751.059 384.657 752.63 384.606 754.438 384.222C756.189 383.856 757.376 383.338 758.99 382.232C764.336 378.566 768.111 371.969 770.675 361.803C771.583 358.21 772.252 354.686 773.758 345.588C774.339 342.061 775.208 334.848 775.307 332.716C775.714 324.138 774.721 318.313 772.012 313.506C771.338 312.313 770.016 310.514 769.242 309.76C767.948 308.482 766.468 307.829 764.249 307.554C762.92 307.389 761.801 307.397 760.44 307.573C757.051 308.023 754.933 308.935 752.405 311.028C751.203 312.021 750.471 312.752 748.095 315.316C745.619 317.983 744.655 318.923 743.249 320.022C742.027 320.98 741.029 321.595 738.05 323.246C735.507 324.648 734.187 325.494 733.038 326.444C731.844 327.438 731.127 328.245 730.381 329.434C727.995 333.238 726.454 338.56 726.173 343.948Z" fill="#FD7F2C" fill-opacity="0.5"/>
</g>
<g clip-path="url(#clip3_434_193)">
<path d="M52.9196 140.074C48.1821 141.829 44.7846 147.763 44.4349 154.888C44.3492 156.687 44.4298 158.034 44.7243 159.896C45.1963 162.833 46.1835 165.421 47.6799 167.594C48.5528 168.862 49.451 169.786 50.6034 170.585C52.1275 171.642 53.5748 172.123 55.2915 172.151C56.0946 172.163 57.573 171.853 58.3355 171.514C59.848 170.838 61.1021 169.855 62.2962 168.418C64.6658 165.549 66.1015 161.432 66.3336 156.824C66.4354 154.769 66.2945 153.035 65.8459 150.904C65.2258 147.97 64.2791 145.767 62.7534 143.746C61.8898 142.596 61.2253 141.951 60.1175 141.183C58.6368 140.15 57.2144 139.664 55.5673 139.629C55.0154 139.613 53.444 139.876 52.9196 140.074Z" fill="#FD7F2C" fill-opacity="0.5"/>
<path d="M26.7352 147.023C25.6805 147.388 25.005 147.743 24.3248 148.278C21.9949 150.128 20.571 153.353 20.3458 157.281C20.2377 159.098 20.3413 160.566 20.7174 162.519C21.3553 165.888 22.6142 168.854 24.5101 171.465C25.6624 173.049 26.8675 174.264 28.2293 175.214C30.1846 176.57 32.1372 177.196 34.1045 177.08C36.527 176.946 38.792 175.402 40.1862 172.941C41.5065 170.602 42.1 167.63 41.9376 164.146C41.8798 162.987 41.2627 159.693 40.8887 158.605C39.3917 154.211 37.1028 150.854 34.211 148.781C31.9114 147.141 29.7735 146.526 27.5441 146.861C27.1994 146.917 26.8386 146.989 26.7352 147.023Z" fill="#FD7F2C" fill-opacity="0.5"/>
<path d="M11.0299 171.185C9.73477 171.644 8.9029 172.197 8.08537 173.132C6.51406 174.93 5.74864 177.71 5.91546 181.047C5.96047 182.036 6.41353 184.531 6.7332 185.537C7.2206 187.089 7.89419 188.702 8.62625 190.045C11.4153 195.156 15.8239 198.76 19.8993 199.272C20.8261 199.392 21.3124 199.368 22.3017 199.169C23.0347 199.015 23.3036 198.935 23.7348 198.722C24.3204 198.438 25.1613 197.831 25.5598 197.412C27.0155 195.889 27.8226 193.739 27.985 190.981C28.0715 189.527 28.0123 188.908 27.6073 186.768C27.2566 184.95 27.2042 184.741 26.8619 183.786C26.2214 182.006 25.5185 180.545 24.5796 179.031C21.5237 174.112 17.037 170.95 13.0577 170.911C12.5455 170.901 11.3686 171.064 11.0299 171.185Z" fill="#FD7F2C" fill-opacity="0.5"/>
<path d="M75.0023 162.598C70.7163 164.315 67.4272 170.208 66.9961 176.937C66.7854 180.19 67.3181 183.448 68.4648 185.957C69.8637 189.014 72.0911 190.921 74.596 191.223C75.2906 191.31 75.7581 191.289 76.4861 191.143C77.3012 190.98 77.8741 190.765 78.6282 190.348C80.1178 189.517 81.4331 188.209 82.5816 186.429C83.2717 185.367 83.6444 184.64 84.1376 183.424C85.359 180.427 85.8958 177.088 85.7096 173.647C85.6573 172.621 85.1861 170.029 84.9041 169.188C84.1968 167.089 83.3648 165.594 82.2107 164.376C80.782 162.868 78.9695 162.061 77.1615 162.131C76.5982 162.158 75.5367 162.384 75.0023 162.598Z" fill="#FD7F2C" fill-opacity="0.5"/>
<path d="M45.9098 186.56C43.1089 187.321 39.7237 188.852 38.2648 190.015C37.2602 190.815 36.6811 191.543 35.0567 194.05C34.3967 195.067 33.633 196.184 33.3628 196.531C32.5873 197.517 31.0183 199.089 28.1874 201.705C23.6195 205.926 22.2059 207.499 21.7806 208.835C21.277 210.405 21.222 212.298 21.6198 214.399C21.9312 216.078 22.3556 217.296 23.084 218.62C23.7853 219.902 24.4603 220.704 25.6751 221.697C29.7012 224.985 35.5081 226.32 43.6561 225.828C46.5362 225.656 49.3065 225.313 56.4041 224.255C59.1549 223.842 64.7024 222.749 66.3033 222.302C72.7456 220.51 76.809 218.299 79.6967 214.993C80.413 214.171 81.4183 212.693 81.7851 211.901C82.4118 210.572 82.53 209.252 82.1881 207.446C81.9831 206.363 81.7014 205.489 81.2363 204.465C80.0699 201.92 78.8745 200.484 76.7047 199.018C75.6749 198.32 74.9544 197.926 72.4739 196.695C69.8928 195.411 68.9604 194.887 67.802 194.056C66.7934 193.334 66.0928 192.703 64.1389 190.775C62.4772 189.127 61.5263 188.3 60.5411 187.633C59.5125 186.942 58.7398 186.579 57.6769 186.287C54.2775 185.353 49.963 185.454 45.9098 186.56Z" fill="#FD7F2C" fill-opacity="0.5"/>
</g>
<g clip-path="url(#clip4_434_193)">
<path d="M148.368 1.77709C143.37 2.40894 138.781 7.42174 136.908 14.2899C136.438 16.0249 136.227 17.3567 136.113 19.24C135.942 22.2119 136.348 24.9605 137.34 27.4208C137.919 28.8559 138.596 29.9612 139.548 31.0034C140.807 32.3817 142.115 33.1805 143.783 33.5989C144.564 33.7934 146.072 33.8281 146.889 33.6711C148.509 33.3567 149.944 32.6839 151.417 31.5553C154.345 29.2975 156.63 25.609 157.847 21.1685C158.388 19.1877 158.624 17.4649 158.644 15.2848C158.671 12.2822 158.221 9.91748 157.168 7.59892C156.573 6.28078 156.064 5.50074 155.149 4.49893C153.927 3.15441 152.644 2.35643 151.045 1.94672C150.511 1.80574 148.922 1.70321 148.368 1.77709Z" fill="#FD7F2C" fill-opacity="0.5"/>
<path d="M121.339 2.58649C120.232 2.70163 119.497 2.89382 118.718 3.26094C116.048 4.5345 113.966 7.3545 112.902 11.1339C112.406 12.881 112.191 14.3368 112.138 16.3265C112.036 19.7576 112.626 22.9364 113.913 25.9153C114.696 27.7226 115.61 29.1814 116.734 30.4183C118.349 32.1866 120.119 33.2416 122.062 33.5774C124.453 33.9991 126.994 33.0087 128.883 30.9269C130.674 28.9465 131.891 26.184 132.482 22.7488C132.675 21.6058 132.781 18.2531 132.651 17.1064C132.136 12.4805 130.625 8.68489 128.251 6.00459C126.361 3.88154 124.408 2.79465 122.162 2.61257C121.814 2.58849 121.447 2.57686 121.339 2.58649Z" fill="#FD7F2C" fill-opacity="0.5"/>
<path d="M100.828 22.5696C99.4659 22.7223 98.5358 23.0716 97.5374 23.7974C95.6185 25.1926 94.2743 27.7291 93.7194 31.0219C93.5507 31.9959 93.4559 34.5328 93.5513 35.587C93.6931 37.2107 94.003 38.9377 94.4282 40.4137C96.0489 46.0345 99.5733 50.5532 103.437 51.9814C104.316 52.3095 104.795 52.3965 105.802 52.4284C106.55 52.4455 106.83 52.4283 107.296 52.319C107.928 52.1758 108.879 51.7749 109.358 51.4571C111.104 50.3045 112.354 48.3918 113.105 45.7386C113.502 44.3408 113.578 43.723 113.643 41.5443C113.692 39.6915 113.686 39.4759 113.557 38.4663C113.315 36.5848 112.944 34.9995 112.354 33.3093C110.431 27.8162 106.736 23.7098 102.864 22.7646C102.367 22.6379 101.184 22.5286 100.828 22.5696Z" fill="#FD7F2C" fill-opacity="0.5"/>
<path d="M165.059 28.7747C160.51 29.473 156.036 34.4698 154.168 40.9334C153.263 44.0584 153.082 47.3565 153.661 50.0648C154.368 53.3649 156.13 55.732 158.508 56.5973C159.167 56.8402 159.627 56.9265 160.368 56.95C161.198 56.9763 161.803 56.8975 162.628 56.6624C164.26 56.1917 165.824 55.2161 167.326 53.7424C168.228 52.8634 168.747 52.24 169.49 51.1665C171.325 48.5215 172.567 45.3876 173.125 41.9905C173.295 40.9773 173.393 38.3426 173.298 37.4582C173.06 35.2503 172.57 33.6025 171.707 32.1518C170.638 30.355 169.044 29.1554 167.265 28.8119C166.71 28.7094 165.626 28.6882 165.059 28.7747Z" fill="#FD7F2C" fill-opacity="0.5"/>
<path d="M131.536 45.5123C128.641 45.6165 125.011 46.3373 123.338 47.1397C122.186 47.6909 121.465 48.2687 119.342 50.3431C118.479 51.1842 117.494 52.0998 117.156 52.3763C116.188 53.1618 114.32 54.3367 110.997 56.2425C105.635 59.3178 103.918 60.5301 103.216 61.7354C102.387 63.1521 101.927 64.9853 101.863 67.1249C101.805 68.8337 101.957 70.1182 102.383 71.5747C102.791 72.9848 103.277 73.9208 104.248 75.166C107.467 79.2899 112.843 81.915 120.895 83.2929C123.74 83.7812 126.516 84.078 133.665 84.6634C136.436 84.8882 142.081 85.0865 143.738 85.0149C150.406 84.7363 154.844 83.5056 158.371 80.9403C159.246 80.302 160.544 79.0895 161.072 78.401C161.969 77.2476 162.368 75.9871 162.423 74.1476C162.456 73.0452 162.37 72.1284 162.136 71.0241C161.546 68.2762 160.689 66.6037 158.888 64.6794C158.034 63.7644 157.416 63.2159 155.262 61.4502C153.021 59.6098 152.224 58.886 151.273 57.8112C150.445 56.8774 149.897 56.1027 148.407 53.7768C147.141 51.7911 146.391 50.7684 145.574 49.8937C144.719 48.9852 144.044 48.4546 143.07 47.9275C139.956 46.2423 135.727 45.3576 131.536 45.5123Z" fill="#FD7F2C" fill-opacity="0.5"/>
</g>
<defs>
<clipPath id="clip0_434_193">
<rect width="101.336" height="103.084" fill="white" transform="matrix(0.732268 -0.681017 0.659562 0.75165 94 329.474)"/>
</clipPath>
<clipPath id="clip1_434_193">
<rect width="102.735" height="101.649" fill="white" transform="matrix(0.264082 -0.9645 0.96038 0.278694 355 398.671)"/>
</clipPath>
<clipPath id="clip2_434_193">
<rect width="102.908" height="101.47" fill="white" transform="matrix(0.116445 -0.993197 0.992368 0.123312 667 386.348)"/>
</clipPath>
<clipPath id="clip3_434_193">
<rect width="80.0876" height="83.4479" fill="white" transform="matrix(0.980459 -0.196722 0.186007 0.982548 0 150.619)"/>
</clipPath>
<clipPath id="clip4_434_193">
<rect width="80.0023" height="83.532" fill="white" transform="matrix(0.999499 0.0316368 -0.0298516 0.999554 94.4936 0)"/>
</clipPath>
</defs>
</svg>
