<svg width="438" height="226" viewBox="0 0 438 226" fill="none" xmlns="http://www.w3.org/2000/svg">
<rect width="438" height="226" fill="white"/>
<path d="M70.4307 160.203C70.4307 162.057 69.8808 163.87 68.8507 165.411C67.8206 166.953 66.3564 168.155 64.6433 168.864C62.9303 169.574 61.0453 169.759 59.2267 169.398C57.4081 169.036 55.7377 168.143 54.4265 166.832C53.1154 165.521 52.2225 163.85 51.8608 162.032C51.4991 160.213 51.6847 158.328 52.3943 156.615C53.1039 154.902 54.3055 153.438 55.8472 152.408C57.3889 151.378 59.2015 150.828 61.0557 150.828C63.5421 150.828 65.9267 151.815 67.6848 153.574C69.443 155.332 70.4307 157.716 70.4307 160.203ZM117.306 169.578C119.16 169.578 120.972 169.028 122.514 167.998C124.056 166.968 125.257 165.503 125.967 163.79C126.677 162.077 126.862 160.192 126.501 158.374C126.139 156.555 125.246 154.885 123.935 153.574C122.624 152.263 120.953 151.37 119.135 151.008C117.316 150.646 115.431 150.832 113.718 151.541C112.005 152.251 110.541 153.453 109.511 154.994C108.481 156.536 107.931 158.349 107.931 160.203C107.931 162.689 108.918 165.074 110.677 166.832C112.435 168.59 114.819 169.578 117.306 169.578ZM170.998 163.296C169.35 164.051 167.559 164.444 165.745 164.449C162.887 164.446 160.121 163.438 157.931 161.602V194.578C157.921 202.863 154.626 210.806 148.767 216.664C142.909 222.523 134.966 225.818 126.681 225.828H51.6807C43.3955 225.818 35.4525 222.523 29.594 216.664C23.7355 210.806 20.4401 202.863 20.4307 194.578V161.602C18.24 163.438 15.474 164.446 12.6159 164.449C10.8027 164.444 9.01155 164.051 7.36305 163.296C4.79406 162.167 2.68749 160.194 1.39184 157.705C0.0961917 155.216 -0.310885 152.359 0.237957 149.607L13.0645 81.1965C13.3787 79.5214 14.032 77.9282 14.9845 76.5149C15.9369 75.1015 17.1683 73.8979 18.6029 72.9778C20.0376 72.0578 21.6452 71.4409 23.3271 71.165C25.0089 70.8891 26.7294 70.96 28.3828 71.3733L71.2005 82.0777H107.161L149.979 71.3733C151.632 70.9599 153.352 70.889 155.034 71.1648C156.716 71.4407 158.323 72.0575 159.758 72.9774C161.192 73.8974 162.424 75.1009 163.376 76.5141C164.329 77.9274 164.982 79.5204 165.296 81.1954L178.123 149.607C178.672 152.359 178.265 155.216 176.97 157.705C175.674 160.194 173.567 162.167 170.998 163.296V163.296ZM145.431 146.171L104.893 94.5777H73.4687L32.9307 146.171V194.578C32.9364 199.549 34.9136 204.315 38.4287 207.83C41.9438 211.345 46.7096 213.322 51.6807 213.328H82.9307V203.417L72.261 192.747C71.0889 191.575 70.4305 189.985 70.4305 188.327C70.4306 186.67 71.0892 185.08 72.2614 183.908C73.4335 182.736 75.0233 182.078 76.6809 182.078C78.3386 182.078 79.9283 182.736 81.1004 183.908L89.1807 191.989L97.261 183.908C98.4331 182.736 100.023 182.078 101.68 182.078C103.338 182.078 104.928 182.736 106.1 183.908C107.272 185.08 107.931 186.67 107.931 188.327C107.931 189.985 107.272 191.575 106.1 192.747L95.4307 203.417V213.328H126.681C131.652 213.322 136.418 211.345 139.933 207.83C143.448 204.315 145.425 199.549 145.431 194.578V146.171Z" fill="black"/>
<path d="M280.668 130.032C280.668 132.735 279.866 135.377 278.365 137.625C276.863 139.872 274.729 141.624 272.232 142.658C269.734 143.692 266.987 143.963 264.336 143.436C261.685 142.908 259.25 141.607 257.338 139.696C255.427 137.784 254.126 135.349 253.598 132.698C253.071 130.047 253.342 127.3 254.376 124.802C255.41 122.305 257.162 120.171 259.409 118.669C261.657 117.168 264.299 116.366 267.002 116.366C270.626 116.366 274.102 117.806 276.665 120.369C279.228 122.932 280.668 126.408 280.668 130.032ZM348.998 143.698C351.701 143.698 354.343 142.897 356.591 141.395C358.838 139.893 360.59 137.759 361.624 135.262C362.658 132.765 362.929 130.017 362.402 127.366C361.874 124.715 360.573 122.28 358.662 120.369C356.75 118.458 354.315 117.156 351.664 116.629C349.013 116.101 346.266 116.372 343.768 117.406C341.271 118.441 339.137 120.192 337.635 122.44C336.134 124.687 335.332 127.329 335.332 130.032C335.332 133.657 336.772 137.133 339.335 139.696C341.898 142.258 345.374 143.698 348.998 143.698ZM427.267 134.541C424.864 135.641 422.253 136.215 419.61 136.222C415.443 136.217 411.411 134.748 408.218 132.072V180.141C408.204 192.218 403.4 203.797 394.86 212.337C386.32 220.877 374.742 225.681 362.664 225.695H253.336C241.258 225.681 229.68 220.877 221.14 212.337C212.6 203.797 207.796 192.218 207.782 180.141V132.072C204.589 134.748 200.557 136.217 196.39 136.222C193.747 136.215 191.136 135.642 188.733 134.541C184.988 132.895 181.918 130.02 180.029 126.392C178.14 122.763 177.547 118.599 178.347 114.587L197.044 14.8636C197.502 12.4218 198.455 10.0994 199.843 8.0391C201.231 5.97884 203.026 4.22424 205.118 2.88313C207.209 1.54202 209.553 0.642722 212.004 0.2405C214.456 -0.161723 216.964 -0.0583737 219.374 0.544196L281.79 16.1482H334.21L396.626 0.544196C399.036 -0.0584077 401.544 -0.161826 403.995 0.240298C406.447 0.642421 408.79 1.54159 410.881 2.88256C412.973 4.22352 414.768 5.97795 416.156 8.03803C417.544 10.0981 418.497 12.4203 418.955 14.862L437.653 114.587C438.453 118.599 437.86 122.763 435.971 126.392C434.082 130.02 431.012 132.895 427.267 134.541V134.541ZM389.996 109.579L330.904 34.3696H285.096L226.004 109.579V180.141C226.012 187.387 228.894 194.335 234.018 199.459C239.142 204.583 246.089 207.465 253.336 207.473H298.889V193.026L283.336 177.473C281.627 175.764 280.668 173.446 280.668 171.03C280.668 168.614 281.628 166.296 283.336 164.588C285.045 162.879 287.363 161.919 289.779 161.92C292.195 161.92 294.513 162.88 296.221 164.588L308 176.368L319.779 164.588C321.487 162.88 323.805 161.92 326.221 161.919C328.637 161.919 330.955 162.879 332.664 164.588C334.372 166.296 335.332 168.614 335.332 171.03C335.332 173.446 334.373 175.764 332.664 177.473L317.111 193.026V207.473H362.664C369.911 207.465 376.858 204.583 381.982 199.459C387.106 194.335 389.988 187.387 389.996 180.141V109.579Z" fill="black"/>
</svg>
